<?xml version="1.0" encoding="UTF-8" standalone="no"?>
<!-- Generator: Adobe Illustrator 23.0.2, SVG Export Plug-In . SVG Version: 6.00 Build 0)  -->

<svg
   xmlns:dc="http://purl.org/dc/elements/1.1/"
   xmlns:cc="http://creativecommons.org/ns#"
   xmlns:rdf="http://www.w3.org/1999/02/22-rdf-syntax-ns#"
   xmlns:svg="http://www.w3.org/2000/svg"
   xmlns="http://www.w3.org/2000/svg"
   xmlns:sodipodi="http://sodipodi.sourceforge.net/DTD/sodipodi-0.dtd"
   xmlns:inkscape="http://www.inkscape.org/namespaces/inkscape"
   version="1.1"
   id="Layer_1"
   x="0px"
   y="0px"
   viewBox="0 0 1280 294.4"
   xml:space="preserve"
   sodipodi:docname="mothcodebanner.svg"
   width="1600"
   height="368"
   inkscape:version="0.92.4 (5da689c313, 2019-01-14)"><metadata
   id="metadata59"><rdf:RDF><cc:Work
       rdf:about=""><dc:format>image/svg+xml</dc:format><dc:type
         rdf:resource="http://purl.org/dc/dcmitype/StillImage" /><dc:title></dc:title></cc:Work></rdf:RDF></metadata><defs
   id="defs57">
	
	

		
		
		
		
		
		
		
		
	</defs><sodipodi:namedview
   pagecolor="#ffffff"
   bordercolor="#666666"
   borderopacity="1"
   objecttolerance="10"
   gridtolerance="10"
   guidetolerance="10"
   inkscape:pageopacity="0"
   inkscape:pageshadow="2"
   inkscape:window-width="1920"
   inkscape:window-height="1017"
   id="namedview55"
   showgrid="false"
   scale-x="0.8"
   inkscape:zoom="0.45054945"
   inkscape:cx="1234.6645"
   inkscape:cy="165.16817"
   inkscape:window-x="-8"
   inkscape:window-y="-8"
   inkscape:window-maximized="1"
   inkscape:current-layer="Layer_1" />
<style
   type="text/css"
   id="style2">
	.st0{fill:#00C8E5;}
</style>
<path
   class="st0"
   d="m 532.15613,129.60871 -24.80532,33.03342 h -2.78303 l -24.20031,-33.15442 v 55.2977 h -14.39918 v -75.98896 h 16.57721 l 23.8373,32.67041 23.7163,-32.67041 h 16.45621 v 76.10996 h -14.39918 z"
   id="path4"
   inkscape:connector-curvature="0"
   style="fill:#00c8e5;stroke-width:1.2100153" /><path
   class="st0"
   d="m 656.5457,147.15394 c -0.242,19.72325 -12.34216,39.32549 -39.08349,39.32549 -26.74134,0 -39.0835,-19.23924 -39.0835,-39.20449 0,-19.96525 12.82616,-40.17251 39.0835,-40.17251 26.25733,0 39.32549,20.08625 39.08349,40.05151 z m -64.00981,0.363 c 0.363,12.46316 7.01809,25.89433 25.04732,25.89433 17.90822,0 24.68431,-13.43117 24.92631,-26.01533 0.24201,-12.82616 -7.01809,-27.22534 -24.92631,-27.22534 -18.02923,0 -25.41032,14.52018 -25.04732,27.34634 z"
   id="path6"
   inkscape:connector-curvature="0"
   style="fill:#00c8e5;stroke-width:1.2100153" /><path
   class="st0"
   d="M 704.0993,121.74361 H 680.02 v -13.06816 c 21.90127,0 40.53551,0 62.67879,0 v 13.06816 h -24.07931 v 63.0418 H 704.2203 v -63.0418 z"
   id="path8"
   inkscape:connector-curvature="0"
   style="fill:#00c8e5;stroke-width:1.2100153" /><path
   class="st0"
   d="m 824.85883,184.90641 v -30.73439 h -37.38947 v 30.73439 h -14.39919 v -76.10996 h 14.39919 v 32.06541 h 37.38947 v -32.06541 h 14.27818 v 76.10996 z"
   id="path10"
   inkscape:connector-curvature="0"
   style="fill:#00c8e5;stroke-width:1.2100153" /><path
   class="st0"
   d="m 941.3833,175.22629 c -7.8651,7.7441 -17.90823,11.25314 -28.91936,11.25314 -28.31436,0 -40.17251,-19.48124 -40.29351,-39.20449 -0.12101,-19.84425 12.82616,-40.17251 40.29351,-40.17251 10.28513,0 20.08625,3.87205 27.95135,11.61615 l -9.55912,9.19611 c -4.96106,-4.84006 -11.73715,-7.13909 -18.39223,-7.13909 -18.39224,0 -26.25734,13.67318 -26.25734,26.37834 0.12101,12.58416 7.3811,25.77332 26.25734,25.77332 6.65508,0 14.15717,-2.66203 19.11824,-7.7441 z"
   id="path12"
   inkscape:connector-curvature="0"
   style="fill:#00c8e5;stroke-width:1.2100153" /><path
   class="st0"
   d="m 1046.0496,147.15394 c -0.242,19.72325 -12.3421,39.32549 -39.0835,39.32549 -26.74131,0 -39.08346,-19.23924 -39.08346,-39.20449 0,-19.96525 12.82616,-40.17251 39.08346,-40.17251 26.2574,0 39.2045,20.08625 39.0835,40.05151 z m -64.13079,0.363 c 0.36301,12.46316 7.01809,25.89433 25.04729,25.89433 17.9083,0 24.6843,-13.43117 24.9263,-26.01533 0.242,-12.82616 -7.018,-27.22534 -24.9263,-27.22534 -17.9082,0 -25.28929,14.52018 -25.04729,27.34634 z"
   id="path14"
   inkscape:connector-curvature="0"
   style="fill:#00c8e5;stroke-width:1.2100153" /><path
   class="st0"
   d="m 1145.2709,146.06492 c 0.363,19.23925 -11.3742,38.72049 -37.9945,38.72049 -9.3171,0 -20.5703,0 -29.8874,0 v -76.10996 c 9.3171,0 20.5703,0 29.8874,0 26.0153,0 37.6315,18.51323 37.9945,37.38947 z m -53.7247,24.92632 h 15.7302 c 17.3032,0 24.0793,-12.58416 23.8373,-25.04732 -0.363,-11.85815 -7.2601,-23.7163 -23.8373,-23.7163 h -15.7302 z"
   id="path16"
   inkscape:connector-curvature="0"
   style="fill:#00c8e5;stroke-width:1.2100153" /><path
   class="st0"
   d="m 1233.239,184.78541 h -56.9917 c 0,-25.28932 0,-50.82064 0,-76.10996 h 56.9917 v 13.91518 h -42.7135 v 17.54522 h 41.2615 v 13.43117 h -41.2615 v 17.18221 h 42.7135 z"
   id="path18"
   inkscape:connector-curvature="0"
   style="fill:#00c8e5;stroke-width:1.2100153" /><g
   id="g50"
   transform="translate(-101.82439,2.95)">
		<g
   id="g24">
			<path
   style="fill:#00c8e5"
   inkscape:connector-curvature="0"
   id="path22"
   d="m 224,217.5 c -0.2,0 -0.3,0 -0.4,0 H 139.5 L 358.9,0.2 h 20 l -50.3,49.8 2.3,0.3 -11.5,83.8 c -5.6,43.8 -31.5,64.3 -52.2,73.7 -20.6,9.3 -40,9.7 -43.2,9.7 z m -50.3,-14.1 h 50.1 c 0.2,0 18.8,0.2 38.1,-8.7 25.2,-11.6 39.8,-32.6 43.6,-62.5 l 9.4,-68.7 z"
   class="st0" />
		</g>
		<g
   id="g28">
			<path
   style="fill:#00c8e5"
   inkscape:connector-curvature="0"
   id="path26"
   d="m 326.7,288.3 -78.1,-77.8 9.9,-10 53.9,53.7 C 310.3,236 303.6,208 282.7,192 l 8.5,-11.2 c 38.5,29.4 36.3,89 36.2,91.5 z"
   class="st0" />
		</g>
		<g
   id="g32">
			<path
   style="fill:#00c8e5"
   inkscape:connector-curvature="0"
   id="path30"
   d="m 429.4,217.5 c -3.2,0 -22.6,-0.4 -43.2,-9.8 C 365.5,198.3 339.6,177.9 334,134 L 322.6,50.3 324.9,50 274.6,0.2 h 20 l 219.3,217.3 h -84.1 c -0.1,0 -0.3,0 -0.4,0 z m -90.9,-154 9.4,68.6 c 3.8,30.1 18.7,51.2 44.1,62.8 19.3,8.7 37.4,8.5 37.6,8.5 h 0.1 50 z"
   class="st0" />
		</g>
		<g
   id="g36">
			<path
   style="fill:#00c8e5"
   inkscape:connector-curvature="0"
   id="path34"
   d="M 326.2,41.8"
   class="st0" />
		</g>
		<g
   id="g40">
			<polygon
   style="fill:#00c8e5"
   id="polygon38"
   points="528.3,159.9 438.6,159.9 438.6,145.8 479.3,145.8 322.4,47.8 329.9,35.8 "
   class="st0" />
		</g>
		<g
   id="g44">
			<polygon
   style="fill:#00c8e5"
   id="polygon42"
   points="213.7,159.9 124,159.9 322.4,35.8 329.9,47.8 173,145.8 213.7,145.8 "
   class="st0" />
		</g>
		<g
   id="g48">
			<path
   style="fill:#00c8e5"
   inkscape:connector-curvature="0"
   id="path46"
   d="M 326.7,288.3 326,272.4 c -0.1,-2.5 -2.3,-62.1 36.2,-91.5 l 8.5,11.2 c -21,16 -27.7,44 -29.8,62.2 l 54,-53.8 9.9,10 z"
   class="st0" />
		</g>
	</g>
</svg>