<?xml version="1.0" encoding="UTF-8" standalone="no"?>
<!-- Generator: Adobe Illustrator 23.0.2, SVG Export Plug-In . SVG Version: 6.00 Build 0)  -->

<svg
   xmlns:dc="http://purl.org/dc/elements/1.1/"
   xmlns:cc="http://creativecommons.org/ns#"
   xmlns:rdf="http://www.w3.org/1999/02/22-rdf-syntax-ns#"
   xmlns:svg="http://www.w3.org/2000/svg"
   xmlns="http://www.w3.org/2000/svg"
   xmlns:sodipodi="http://sodipodi.sourceforge.net/DTD/sodipodi-0.dtd"
   xmlns:inkscape="http://www.inkscape.org/namespaces/inkscape"
   version="1.1"
   id="Layer_1"
   x="0px"
   y="0px"
   viewBox="0 0 392 392"
   xml:space="preserve"
   sodipodi:docname="moth.svg"
   width="392"
   height="392"
   inkscape:export-filename="C:\Users\Matt\Documents\ico.png"
   inkscape:export-xdpi="3.9315019"
   inkscape:export-ydpi="3.9315019"
   inkscape:version="0.92.4 (5da689c313, 2019-01-14)"><metadata
   id="metadata43"><rdf:RDF><cc:Work
       rdf:about=""><dc:format>image/svg+xml</dc:format><dc:type
         rdf:resource="http://purl.org/dc/dcmitype/StillImage" /><dc:title></dc:title></cc:Work></rdf:RDF></metadata><defs
   id="defs41">
	
	
</defs><sodipodi:namedview
   pagecolor="#ffffff"
   bordercolor="#666666"
   borderopacity="1"
   objecttolerance="10"
   gridtolerance="10"
   guidetolerance="10"
   inkscape:pageopacity="0"
   inkscape:pageshadow="2"
   inkscape:window-width="1920"
   inkscape:window-height="1017"
   id="namedview39"
   showgrid="false"
   inkscape:zoom="1.2743463"
   inkscape:cx="268.4862"
   inkscape:cy="126.95214"
   inkscape:window-x="-8"
   inkscape:window-y="-8"
   inkscape:window-maximized="1"
   inkscape:current-layer="Layer_1" />
<style
   type="text/css"
   id="style2">
	.st0{fill:#00C8E5;}
	.st1{font-family:'NexaBold';}
	.st2{font-size:90.1497px;}
	.st3{letter-spacing:18;}
</style>
<g
   id="g34"
   transform="matrix(0.96324062,0,0,0.96324062,5.5153241,24.83102)">
		<g
   id="g8"
   transform="translate(-130.34601,33.401165)">
			<path
   style="fill:#00c8e5"
   inkscape:connector-curvature="0"
   id="path6"
   d="m 225.6,217.8 c -0.2,0 -0.3,0 -0.4,0 h -84.4 l 220,-218 h 20 l -50.4,49.9 2.3,0.3 -11.5,84.1 c -5.6,44 -31.6,64.5 -52.4,73.9 -20.5,9.4 -40,9.8 -43.2,9.8 z m -50.5,-14.1 h 50.3 c 0.2,0 18.8,0.2 38.2,-8.7 25.2,-11.6 40,-32.7 43.8,-62.7 l 9.4,-68.9 z"
   class="st0" />
		</g>
		<g
   id="g12"
   transform="translate(-130.34601,33.401165)">
			<path
   style="fill:#00c8e5"
   inkscape:connector-curvature="0"
   id="path10"
   d="m 328.6,288.8 -78.4,-78.1 10,-10 54.1,53.9 c -2.1,-18.3 -8.9,-46.4 -29.8,-62.4 l 8.6,-11.2 c 38.6,29.5 36.4,89.3 36.3,91.8 z"
   class="st0" />
		</g>
		<g
   id="g16"
   transform="translate(-130.34601,33.401165)">
			<path
   style="fill:#00c8e5"
   inkscape:connector-curvature="0"
   id="path14"
   d="m 431.6,217.8 c -3.2,0 -22.7,-0.4 -43.4,-9.8 -20.8,-9.4 -46.8,-29.9 -52.4,-74 l -11.5,-84 2.3,-0.3 -50.3,-49.9 h 20 l 220,218 H 432 c -0.1,0 -0.2,0 -0.4,0 z m -91.2,-154.4 9.4,68.9 c 3.8,30.2 18.7,51.4 44.2,63 19.3,8.8 37.6,8.5 37.7,8.5 h 0.1 50.2 z"
   class="st0" />
		</g>
		<g
   id="g20"
   transform="translate(-130.34601,33.401165)">
			<path
   style="fill:#00c8e5"
   inkscape:connector-curvature="0"
   id="path18"
   d="M 328.1,41.6"
   class="st0" />
		</g>
		<g
   id="g24"
   transform="translate(-130.34601,33.401165)">
			<polygon
   style="fill:#00c8e5"
   id="polygon22"
   points="324.4,47.5 331.8,35.6 530.9,160 440.9,160 440.9,145.9 481.7,145.9 "
   class="st0" />
		</g>
		<g
   id="g28"
   transform="translate(-130.34601,33.401165)">
			<polygon
   style="fill:#00c8e5"
   id="polygon26"
   points="174.5,145.9 215.3,145.9 215.3,160 125.3,160 324.4,35.6 331.8,47.5 "
   class="st0" />
		</g>
		<g
   id="g32"
   transform="translate(-130.34601,33.401165)">
			<path
   style="fill:#00c8e5"
   inkscape:connector-curvature="0"
   id="path30"
   d="m 328.6,288.8 -0.7,-16 c -0.1,-2.5 -2.3,-62.3 36.3,-91.8 l 8.6,11.2 c -21.1,16.1 -27.8,44.2 -29.9,62.4 l 54.1,-53.9 10,10 z"
   class="st0" />
		</g>
	</g>
</svg>