<svg version="1" xmlns="http://www.w3.org/2000/svg" width="933.333" height="933.333" viewBox="0 0 700.000000 700.000000"><path d="M262.5 102c-.3.4 15.1 16.1 34 34.8l34.5 34.1-8.3 5.1c-4.5 2.8-17.4 10.9-28.7 18s-26.1 16.3-33 20.6c-6.9 4.2-15.4 9.6-19 11.9-3.6 2.3-17.6 11.1-31.3 19.6-39.3 24.5-58.7 36.6-65.2 40.7-3.3 2.1-37 23.2-74.8 46.8L1.8 376.5l63.1.3 63.1.2-50.1 49.8-50.1 49.7 76.4-.1c69.1-.1 83.9-.4 93.3-2 6.9-1.1 19.1-3.7 21.2-4.5 1.9-.7 9.4 6.4 67 63.7 35.6 35.4 65.1 64.3 65.5 64.2.4-.2 29.7-29.2 65.1-64.5l64.3-64.1 5.5 1.4c19.9 5.3 26.2 5.7 109.2 5.8 42.3.1 77-.1 77.2-.4.2-.3-21.9-22.6-49.2-49.5l-49.5-49 62.3-.5 62.4-.5-7.5-4.5c-4-2.5-8.8-5.4-10.5-6.5-1.7-1.1-5.6-3.5-8.6-5.3-4.9-3-10.9-6.8-23.9-15.1-2.5-1.6-22-13.8-43.5-27.1-37.4-23.2-43.9-27.3-49.5-30.9-1.4-.9-14.8-9.3-29.7-18.6-32.4-20.2-51.8-32.3-80.8-50.5-11.9-7.4-22.7-14.2-24-15-1.4-.8-13.3-8.3-26.6-16.5l-24-15 35-34.8c19.3-19.1 35.1-34.9 35.1-35 0-.5-33.8-.2-34.4.3-.2.3-12.7 12.6-27.6 27.4l-27.1 27-9.2-9.1c-5.1-5-17.6-17.4-27.8-27.5l-18.6-18.4h-16.2c-8.9 0-16.4.3-16.6.6zm199.6 199.1c45.9 45.5 99 98.1 118.2 117l34.7 34.4-45.7-.1c-48.5-.1-55.1-.4-70.5-3.5-35.5-7.1-65.9-25.1-84.8-50.1-16.3-21.5-23.6-42.9-28.5-82.8-.3-2.5-1.4-11-2.6-19-1.1-8-2.2-16.3-2.5-18.5-.3-2.2-.7-5.1-.9-6.5-.2-1.4-.9-6.3-1.5-11s-1.3-9.6-1.5-11c-.7-4.9-1.5-10.6-2-15-.4-2.5-.8-5.6-1-7-.2-1.4-.6-4.5-1-7-.3-2.5-.8-5.9-1.1-7.5l-.6-3 4 4c2.2 2.2 41.5 41.2 87.3 86.6zm-132.6-82.9c-.5 3.5-.9 7.2-1.1 8.3-.1 1.1-.5 4-.8 6.5-1.4 10.2-1.7 12.6-2.1 14-.2.8-.7 4.4-1 8-.3 3.6-.8 7.2-1 8-.2.8-.9 5.5-1.5 10.5-1.1 8.8-1.6 12.4-2.5 17.5-.2 1.4-.7 5-1 8-.3 3-.8 6.6-1 8-.3 1.4-.7 4.5-1 7-1.3 11-3.8 26.2-5.5 33.7-9.4 40.2-32.1 69.4-68.1 87.4-5.3 2.7-10.3 4.9-11.1 4.9-.8 0-1.8.4-2.3.9-2.6 2.6-29.1 8.9-43.8 10.5-6.1.7-96.7.9-97.3.3-.3-.3 6.4-7.3 14.8-15.7 8.4-8.3 48.1-47.6 88.1-87.3 40.1-39.7 87.3-86.6 105-104.3 17.7-17.6 32.6-32.1 33-32.2.5-.1.6 2.6.2 6zm-120 78.3l-57 56.5-32.9-.1c-27.4 0-32.7-.2-31.5-1.3.8-.8 10-6.7 20.4-13.1 10.5-6.5 21.9-13.7 25.5-16 10.3-6.6 84.5-52.9 111.3-69.4 8.3-5.2 16.3-10.2 17.6-11.3 1.3-1 2.6-1.8 3-1.8.3 0-25.1 25.4-56.4 56.5zM351.3 246c2.3 15.3 3.9 27 4.2 29.5.2 2.7.7 6.3 2.1 16 .2 1.6.6 4.1.9 5.5.2 1.4.7 4.7 1 7.5.3 2.7.8 6.1 1 7.5.2 1.4.6 4.7 1 7.5 4 32 8.6 49.5 18.7 70.2 4.5 9.3 12.7 22 18.6 28.7 1.2 1.5 2.2 2.9 2.2 3.4-.1.4-2.1 2.9-4.7 5.7-17.9 19.6-31.1 45.3-38.8 75.5-2.2 8.9-5.2 25-5.7 31.3-.3 3-1 2.7-1.5-.6-3.7-25.4-8.9-44.7-17.4-63.9-6.7-15.3-15.1-28.5-25.9-40.7l-6.7-7.7 4.4-5.4c9.1-11.3 17.9-27.1 23.6-42.5 3.1-8.4 7.4-24.2 8.2-30.5.3-2.5.8-5.2 1-6 .2-.8.6-3.8 1-6.5.8-6.8 3.5-27 3.9-29.2.2-1 .7-4.5 1.1-7.8.8-6.5.8-6.2 2.5-18.5.7-4.7 1.4-9.9 1.5-11.5.2-1.7.6-4.2.8-5.6.3-1.4.8-5.6 1.2-9.3.8-7.4 1-7.7 1.8-2.6zm118.9 16.6c15.6 9.7 29.9 18.7 31.8 19.9 1.9 1.2 7.3 4.6 12 7.5 4.7 3 10.8 6.8 13.5 8.5 2.8 1.7 22.6 14.1 44 27.5 21.5 13.4 39.6 24.8 40.3 25.5 1 .9-5.9 1.2-30.6 1.4l-31.9.1-29.9-29.5c-52.7-52.1-80.1-79.6-78.8-79.1.7.3 14 8.4 29.6 18.2zM287 443.4c16.5 17 31.6 49.5 36.5 78.6.3 1.9.8 4.2 1 5 .6 2.3 1.7 12 1.3 12-.2 0-18-17.7-39.7-39.4l-39.4-39.4 8-4c8.5-4.3 16.3-9.1 22.8-14.1 2.2-1.7 4.3-3.1 4.6-3.1.4 0 2.6 2 4.9 4.4zm135.1-2.5c5.8 4.5 18 12.1 25.2 15.6l7.8 3.9-39.3 39.3c-21.6 21.6-39.6 39.2-39.9 39.3-.3 0 0-3.7.8-8.3 6-38.2 18.5-66.5 39.3-88.9 3-3.3 3.1-3.3 6.1-.9z"/></svg>